<svg xmlns="http://www.w3.org/2000/svg" xmlns:xlink="http://www.w3.org/1999/xlink" width="909" zoomAndPan="magnify" viewBox="0 0 681.75 123.750003" height="165" preserveAspectRatio="xMidYMid meet" version="1.0"><defs><g/><clipPath id="0cff0db090"><path d="M 38.746094 0 L 93 0 L 93 123.5 L 38.746094 123.5 Z M 38.746094 0 " clip-rule="nonzero"/></clipPath><clipPath id="7dc51efe6d"><path d="M 92 0 L 145.820312 0 L 145.820312 123.5 L 92 123.5 Z M 92 0 " clip-rule="nonzero"/></clipPath></defs><g clip-path="url(#0cff0db090)"><path fill="#3e97ff" d="M 88.941406 105.945312 C 79.835938 97.839844 74.625 86.234375 74.625 74.046875 L 74.625 71.167969 C 74.625 71.167969 79.164062 78.816406 81.363281 77.902344 C 81.847656 77.703125 81.851562 76.832031 81.597656 75.664062 C 80.605469 71.054688 76.855469 67.539062 72.210938 66.703125 C 65.472656 65.488281 57.238281 61.609375 55.5 49.289062 C 54.722656 43.773438 56.40625 32.695312 53.457031 29.820312 C 57.03125 31.683594 58.972656 34.558594 59.75 40.074219 C 62.09375 56.710938 72.050781 57.242188 78.402344 57.316406 C 79.8125 57.332031 81.535156 57.152344 83.300781 57.34375 C 85.585938 57.589844 89.984375 59.28125 92.28125 59.28125 L 92.28125 0.0117188 L 38.75 30.902344 C 38.75 69.132812 59.15625 104.457031 92.28125 123.570312 L 92.28125 108.914062 L 88.941406 105.945312 " fill-opacity="1" fill-rule="nonzero"/></g><g clip-path="url(#7dc51efe6d)"><path fill="#3e97ff" d="M 92.28125 0.0117188 L 92.28125 59.28125 C 94.578125 59.28125 98.980469 57.589844 101.261719 57.34375 C 103.03125 57.152344 104.753906 57.332031 106.164062 57.316406 C 112.515625 57.242188 122.472656 56.710938 124.816406 40.074219 C 125.59375 34.558594 127.535156 31.683594 131.109375 29.820312 C 128.15625 32.695312 129.839844 43.773438 129.0625 49.289062 C 127.328125 61.609375 119.089844 65.488281 112.351562 66.703125 C 107.707031 67.539062 103.957031 71.054688 102.964844 75.664062 C 102.714844 76.832031 102.71875 77.703125 103.199219 77.902344 C 105.398438 78.816406 109.9375 71.167969 109.9375 71.167969 L 109.9375 74.046875 C 109.9375 86.234375 104.730469 97.839844 95.621094 105.945312 L 92.28125 108.914062 L 92.28125 123.570312 C 125.410156 104.457031 145.816406 69.132812 145.816406 30.902344 L 92.28125 0.0117188 " fill-opacity="1" fill-rule="nonzero"/></g><g fill="#343446" fill-opacity="1"><g transform="translate(187.413302, 89.460183)"><g><path d="M 38.804688 -30.746094 C 43.359375 -32.964844 45.574219 -37.152344 45.574219 -42.273438 C 45.574219 -52.183594 38.96875 -58.230469 26.394531 -58.230469 L 7.535156 -58.230469 L 7.535156 0 L 31.511719 0 C 43.804688 0 49.765625 -6.488281 49.765625 -16.320312 C 49.765625 -24.621094 45.375 -28.933594 38.804688 -30.746094 Z M 26.515625 -48.195312 C 31.914062 -48.195312 34.453125 -45.375 34.453125 -41.507812 C 34.453125 -37.558594 32.199219 -34.496094 27.039062 -34.496094 L 19.179688 -34.496094 L 19.179688 -48.195312 Z M 29.253906 -10.355469 L 19.179688 -10.355469 L 19.179688 -25.1875 L 29.015625 -25.1875 C 35.824219 -25.1875 38.039062 -21.519531 38.039062 -17.648438 C 38.039062 -13.863281 35.785156 -10.355469 29.253906 -10.355469 Z M 29.253906 -10.355469 "/></g></g></g><g fill="#343446" fill-opacity="1"><g transform="translate(245.355448, 89.460183)"><g><path d="M 29.09375 0.804688 C 41.910156 0.804688 51.941406 -5.722656 51.941406 -20.390625 L 51.941406 -58.230469 L 39.855469 -58.230469 L 39.855469 -22.042969 C 39.855469 -13.21875 35.097656 -9.871094 29.09375 -9.871094 C 23.128906 -9.871094 18.414062 -13.175781 18.414062 -22.042969 L 18.414062 -58.230469 L 6.328125 -58.230469 L 6.328125 -20.390625 C 6.328125 -5.722656 16.320312 0.804688 29.09375 0.804688 Z M 29.09375 0.804688 "/></g></g></g><g fill="#343446" fill-opacity="1"><g transform="translate(308.576463, 89.460183)"><g><path d="M 19.625 -10.679688 L 19.625 -58.230469 L 7.535156 -58.230469 L 7.535156 0 L 37.878906 0 L 37.878906 -10.679688 Z M 19.625 -10.679688 "/></g></g></g><g fill="#343446" fill-opacity="1"><g transform="translate(353.099806, 89.460183)"><g><path d="M 19.625 -10.679688 L 19.625 -58.230469 L 7.535156 -58.230469 L 7.535156 0 L 37.878906 0 L 37.878906 -10.679688 Z M 19.625 -10.679688 "/></g></g></g><g fill="#343446" fill-opacity="1"><g transform="translate(397.623162, 89.460183)"><g><path d="M 47.308594 -58.230469 L 47.308594 -16.84375 L 21.359375 -58.230469 L 7.535156 -58.230469 L 7.535156 0 L 19.585938 0 L 19.585938 -41.628906 L 45.375 0 L 59.359375 0 L 59.359375 -58.230469 Z M 47.308594 -58.230469 "/></g></g></g><g fill="#343446" fill-opacity="1"><g transform="translate(469.46767, 89.460183)"><g><path d="M 33.324219 0.804688 C 50.410156 0.804688 63.066406 -10.878906 63.066406 -29.136719 C 63.066406 -47.429688 50.410156 -59.035156 33.324219 -59.035156 C 16.199219 -59.035156 3.546875 -47.429688 3.546875 -29.136719 C 3.546875 -10.878906 16.199219 0.804688 33.324219 0.804688 Z M 33.324219 -10.277344 C 23.292969 -10.277344 15.59375 -17.328125 15.59375 -29.136719 C 15.59375 -40.902344 23.292969 -47.914062 33.324219 -47.914062 C 43.359375 -47.914062 51.054688 -40.902344 51.054688 -29.136719 C 51.054688 -17.328125 43.359375 -10.277344 33.324219 -10.277344 Z M 33.324219 -10.277344 "/></g></g></g><g fill="#343446" fill-opacity="1"><g transform="translate(541.070398, 89.460183)"><g><path d="M 26.917969 0.804688 C 39.613281 0.804688 48.640625 -5.519531 48.640625 -16.601562 C 48.640625 -28.410156 38.28125 -31.753906 29.457031 -34.414062 C 22.847656 -36.386719 17.125 -37.757812 17.125 -42.632812 C 17.125 -47.105469 21.277344 -49.164062 26.152344 -49.164062 C 31.632812 -49.164062 35.542969 -46.625 37.355469 -41.023438 L 48.316406 -43.722656 C 45.980469 -54.882812 35.664062 -59.035156 25.425781 -59.035156 C 13.742188 -59.035156 4.875 -52.910156 4.875 -42.191406 C 4.875 -31.3125 14.023438 -28.207031 22.566406 -25.546875 C 29.660156 -23.371094 36.105469 -21.679688 36.148438 -15.957031 C 36.1875 -11.242188 32.277344 -9.066406 27.121094 -9.066406 C 21.035156 -9.066406 16.523438 -12.167969 14.828125 -18.859375 L 2.859375 -16.117188 C 4.632812 -5.199219 14.386719 0.804688 26.917969 0.804688 Z M 26.917969 0.804688 "/></g></g></g><g fill="#343446" fill-opacity="1"><g transform="translate(598.287216, 89.460183)"><g><path d="M 41.304688 -47.589844 L 41.304688 -58.230469 L 7.535156 -58.230469 L 7.535156 0 L 41.304688 0 L 41.304688 -10.679688 L 19.707031 -10.679688 L 19.707031 -23.855469 L 38.847656 -23.855469 L 38.847656 -34.375 L 19.707031 -34.375 L 19.707031 -47.589844 Z M 41.304688 -47.589844 "/></g></g></g></svg>